<?xml version="1.0" encoding="utf-8"?>
<!-- Generator: Adobe Illustrator 24.0.1, SVG Export Plug-In . SVG Version: 6.00 Build 0)  -->
<svg version="1.1" id="Layer_1" xmlns="http://www.w3.org/2000/svg" xmlns:xlink="http://www.w3.org/1999/xlink" x="0px" y="0px"
	 viewBox="0 0 500 500" style="enable-background:new 0 0 500 500;" xml:space="preserve">
<style type="text/css">
	.st0{fill:#FFFFFF;}
	.st1{fill:#1D1D1D;}
</style>
<rect x="71" y="71" class="st0" width="358" height="358"/>
<g>
	<path class="st1" d="M350.56,255.81c0,59.53-41.45,95.69-95.97,95.69c-61.2,0-105.15-45.06-105.15-100.97
		c0-56.47,44.78-101.53,102.09-101.53c37.27,0,68.71,18.36,85.12,44.51l-37.83,21.7c-8.07-12.8-25.59-22.81-47.57-22.81
		c-32.82,0-57.3,24.2-57.3,58.41c0,33.1,23.37,57.3,61.2,57.3c25.87,0,42.84-11.4,49.79-30.04h-52.02v-38.94h97.63V255.81z"/>
</g>
</svg>
